<svg width="393" height="852" viewBox="0 0 393 852" fill="none" xmlns="http://www.w3.org/2000/svg">
<g opacity="0.5" clip-path="url(#clip0_352_2600)">
<line x1="401" y1="4.81714" x2="-18" y2="4.8171" stroke="black" stroke-opacity="0.5"/>
<line x1="401" y1="39.4009" x2="-18" y2="39.4008" stroke="black" stroke-opacity="0.5"/>
<line x1="401" y1="73.9844" x2="-18" y2="73.9843" stroke="black" stroke-opacity="0.5"/>
<line x1="401" y1="108.568" x2="-18" y2="108.568" stroke="black" stroke-opacity="0.5"/>
<line x1="401" y1="143.152" x2="-18" y2="143.152" stroke="black" stroke-opacity="0.5"/>
<line x1="401" y1="177.735" x2="-18" y2="177.735" stroke="black" stroke-opacity="0.5"/>
<line x1="401" y1="212.319" x2="-18" y2="212.319" stroke="black" stroke-opacity="0.5"/>
<line x1="401" y1="246.903" x2="-18" y2="246.903" stroke="black" stroke-opacity="0.5"/>
<line x1="401" y1="281.486" x2="-18" y2="281.486" stroke="black" stroke-opacity="0.5"/>
<line x1="401" y1="316.07" x2="-18" y2="316.07" stroke="black" stroke-opacity="0.5"/>
<line x1="401" y1="350.653" x2="-18" y2="350.653" stroke="black" stroke-opacity="0.5"/>
<line x1="401" y1="385.237" x2="-18" y2="385.237" stroke="black" stroke-opacity="0.5"/>
<line x1="401" y1="419.821" x2="-18" y2="419.821" stroke="black" stroke-opacity="0.5"/>
<line x1="401" y1="454.404" x2="-18" y2="454.404" stroke="black" stroke-opacity="0.5"/>
<line x1="401" y1="488.988" x2="-18" y2="488.988" stroke="black" stroke-opacity="0.5"/>
<line x1="401" y1="523.571" x2="-18" y2="523.571" stroke="black" stroke-opacity="0.5"/>
<line x1="401" y1="558.155" x2="-18" y2="558.155" stroke="black" stroke-opacity="0.5"/>
<line x1="401" y1="592.739" x2="-18" y2="592.739" stroke="black" stroke-opacity="0.5"/>
<line x1="401" y1="627.322" x2="-18" y2="627.322" stroke="black" stroke-opacity="0.5"/>
<line x1="401" y1="661.906" x2="-18" y2="661.906" stroke="black" stroke-opacity="0.5"/>
<line x1="401" y1="696.49" x2="-18" y2="696.489" stroke="black" stroke-opacity="0.5"/>
<line x1="401" y1="731.073" x2="-18" y2="731.073" stroke="black" stroke-opacity="0.5"/>
<line x1="401" y1="765.656" x2="-18" y2="765.656" stroke="black" stroke-opacity="0.5"/>
<line x1="401" y1="800.24" x2="-18" y2="800.24" stroke="black" stroke-opacity="0.5"/>
<line x1="401" y1="834.824" x2="-18" y2="834.824" stroke="black" stroke-opacity="0.5"/>
<line x1="14.5" y1="-54.1023" x2="14.5" y2="868.908" stroke="black" stroke-opacity="0.5"/>
<line x1="46.5" y1="-54.1023" x2="46.5" y2="868.908" stroke="black" stroke-opacity="0.5"/>
<line x1="91.5" y1="-54.1023" x2="91.5" y2="868.908" stroke="black" stroke-opacity="0.5"/>
<line x1="123.5" y1="-54.1023" x2="123.5" y2="868.908" stroke="black" stroke-opacity="0.5"/>
<line x1="155.5" y1="-54.1023" x2="155.5" y2="868.908" stroke="black" stroke-opacity="0.5"/>
<line x1="200.5" y1="-54.1023" x2="200.5" y2="868.908" stroke="black" stroke-opacity="0.5"/>
<line x1="232.5" y1="-54.1023" x2="232.5" y2="868.908" stroke="black" stroke-opacity="0.5"/>
<line x1="264.5" y1="-54.1023" x2="264.5" y2="868.908" stroke="black" stroke-opacity="0.5"/>
<line x1="309.5" y1="-54.1023" x2="309.5" y2="868.908" stroke="black" stroke-opacity="0.5"/>
<line x1="341.5" y1="-54.1023" x2="341.5" y2="868.908" stroke="black" stroke-opacity="0.5"/>
<line x1="373.5" y1="-54.1023" x2="373.5" y2="868.908" stroke="black" stroke-opacity="0.5"/>
</g>
<defs>
<clipPath id="clip0_352_2600">
<rect width="445" height="881" fill="white" transform="translate(-18 -25)"/>
</clipPath>
</defs>
</svg>
