<svg width="30" height="38" viewBox="0 0 30 38" fill="none" xmlns="http://www.w3.org/2000/svg">
<mask id="path-1-outside-1_191_11496" maskUnits="userSpaceOnUse" x="9" y="9" width="12" height="20" fill="black">
<rect fill="white" x="9" y="9" width="12" height="20"/>
<path d="M19.8184 28.002H18.1826V26.3652H19.8184V28.002ZM18.1826 26.3652H16.5459V24.7285H18.1826V26.3652ZM16.5459 24.7285H14.9092V23.0928H16.5459V24.7285ZM14.9092 23.0918H13.2734V21.4561H14.9092V23.0918ZM13.2734 21.4561H11.6367V19.8193H13.2734V21.4561ZM11.6367 19.8193H10V18.1826H11.6367V19.8193ZM13.2734 18.1826H11.6367V16.5469L13.2734 16.5459V18.1826ZM14.9092 16.5459L13.2734 16.5469V14.9102H14.9092V16.5459ZM16.5459 14.9102H14.9092V13.2734H16.5459V14.9102ZM18.1826 13.2734H16.5459V11.6367H18.1826V13.2734ZM19.8184 10V11.6367H18.1826V10H19.8184Z"/>
</mask>
<path d="M19.8184 28.002H18.1826V26.3652H19.8184V28.002ZM18.1826 26.3652H16.5459V24.7285H18.1826V26.3652ZM16.5459 24.7285H14.9092V23.0928H16.5459V24.7285ZM14.9092 23.0918H13.2734V21.4561H14.9092V23.0918ZM13.2734 21.4561H11.6367V19.8193H13.2734V21.4561ZM11.6367 19.8193H10V18.1826H11.6367V19.8193ZM13.2734 18.1826H11.6367V16.5469L13.2734 16.5459V18.1826ZM14.9092 16.5459L13.2734 16.5469V14.9102H14.9092V16.5459ZM16.5459 14.9102H14.9092V13.2734H16.5459V14.9102ZM18.1826 13.2734H16.5459V11.6367H18.1826V13.2734ZM19.8184 10V11.6367H18.1826V10H19.8184Z" fill="#001A52"/>
<path d="M19.8184 28.002V28.302H20.1184V28.002H19.8184ZM18.1826 28.002H17.8826V28.302H18.1826V28.002ZM19.8184 26.3652H20.1184V26.0652H19.8184V26.3652ZM16.5459 26.3652H16.2459V26.6652H16.5459V26.3652ZM18.1826 24.7285H18.4826V24.4285H18.1826V24.7285ZM14.9092 24.7285H14.6092V25.0285H14.9092V24.7285ZM14.9092 23.0928V22.7928H14.6092V23.0928H14.9092ZM16.5459 23.0928H16.8459V22.7928H16.5459V23.0928ZM14.9092 23.0918V23.3918H15.2092V23.0918H14.9092ZM13.2734 23.0918H12.9734V23.3918H13.2734V23.0918ZM14.9092 21.4561H15.2092V21.1561H14.9092V21.4561ZM11.6367 21.4561H11.3367V21.7561H11.6367V21.4561ZM13.2734 19.8193H13.5734V19.5193H13.2734V19.8193ZM10 19.8193H9.7V20.1193H10V19.8193ZM10 18.1826V17.8826H9.7V18.1826H10ZM13.2734 18.1826V18.4826H13.5734V18.1826H13.2734ZM11.6367 16.5469L11.6365 16.2469L11.3367 16.2471V16.5469H11.6367ZM13.2734 16.5459H13.5734V16.2457L13.2733 16.2459L13.2734 16.5459ZM14.9092 16.5459L14.9094 16.8459L15.2092 16.8457V16.5459H14.9092ZM13.2734 16.5469H12.9734V16.8471L13.2736 16.8469L13.2734 16.5469ZM13.2734 14.9102V14.6102H12.9734V14.9102H13.2734ZM16.5459 14.9102V15.2102H16.8459V14.9102H16.5459ZM14.9092 13.2734V12.9734H14.6092V13.2734H14.9092ZM18.1826 13.2734V13.5734H18.4826V13.2734H18.1826ZM16.5459 11.6367V11.3367H16.2459V11.6367H16.5459ZM19.8184 10H20.1184V9.7H19.8184V10ZM19.8184 11.6367V11.9367H20.1184V11.6367H19.8184ZM18.1826 10V9.7H17.8826V10H18.1826ZM19.8184 28.002V27.702H18.1826V28.002V28.302H19.8184V28.002ZM18.1826 28.002H18.4826V26.3652H18.1826H17.8826V28.002H18.1826ZM18.1826 26.3652V26.6652H19.8184V26.3652V26.0652H18.1826V26.3652ZM19.8184 26.3652H19.5184V28.002H19.8184H20.1184V26.3652H19.8184ZM18.1826 26.3652V26.0652H16.5459V26.3652V26.6652H18.1826V26.3652ZM16.5459 26.3652H16.8459V24.7285H16.5459H16.2459V26.3652H16.5459ZM16.5459 24.7285V25.0285H18.1826V24.7285V24.4285H16.5459V24.7285ZM18.1826 24.7285H17.8826V26.3652H18.1826H18.4826V24.7285H18.1826ZM16.5459 24.7285V24.4285H14.9092V24.7285V25.0285H16.5459V24.7285ZM14.9092 24.7285H15.2092V23.0928H14.9092H14.6092V24.7285H14.9092ZM14.9092 23.0928V23.3928H16.5459V23.0928V22.7928H14.9092V23.0928ZM16.5459 23.0928H16.2459V24.7285H16.5459H16.8459V23.0928H16.5459ZM14.9092 23.0918V22.7918H13.2734V23.0918V23.3918H14.9092V23.0918ZM13.2734 23.0918H13.5734V21.4561H13.2734H12.9734V23.0918H13.2734ZM13.2734 21.4561V21.7561H14.9092V21.4561V21.1561H13.2734V21.4561ZM14.9092 21.4561H14.6092V23.0918H14.9092H15.2092V21.4561H14.9092ZM13.2734 21.4561V21.1561H11.6367V21.4561V21.7561H13.2734V21.4561ZM11.6367 21.4561H11.9367V19.8193H11.6367H11.3367V21.4561H11.6367ZM11.6367 19.8193V20.1193H13.2734V19.8193V19.5193H11.6367V19.8193ZM13.2734 19.8193H12.9734V21.4561H13.2734H13.5734V19.8193H13.2734ZM11.6367 19.8193V19.5193H10V19.8193V20.1193H11.6367V19.8193ZM10 19.8193H10.3V18.1826H10H9.7V19.8193H10ZM10 18.1826V18.4826H11.6367V18.1826V17.8826H10V18.1826ZM11.6367 18.1826H11.3367V19.8193H11.6367H11.9367V18.1826H11.6367ZM13.2734 18.1826V17.8826H11.6367V18.1826V18.4826H13.2734V18.1826ZM11.6367 18.1826H11.9367V16.5469H11.6367H11.3367V18.1826H11.6367ZM11.6367 16.5469L11.6369 16.8469L13.2736 16.8459L13.2734 16.5459L13.2733 16.2459L11.6365 16.2469L11.6367 16.5469ZM13.2734 16.5459H12.9734V18.1826H13.2734H13.5734V16.5459H13.2734ZM14.9092 16.5459L14.909 16.2459L13.2733 16.2469L13.2734 16.5469L13.2736 16.8469L14.9094 16.8459L14.9092 16.5459ZM13.2734 16.5469H13.5734V14.9102H13.2734H12.9734V16.5469H13.2734ZM13.2734 14.9102V15.2102H14.9092V14.9102V14.6102H13.2734V14.9102ZM14.9092 14.9102H14.6092V16.5459H14.9092H15.2092V14.9102H14.9092ZM16.5459 14.9102V14.6102H14.9092V14.9102V15.2102H16.5459V14.9102ZM14.9092 14.9102H15.2092V13.2734H14.9092H14.6092V14.9102H14.9092ZM14.9092 13.2734V13.5734H16.5459V13.2734V12.9734H14.9092V13.2734ZM16.5459 13.2734H16.2459V14.9102H16.5459H16.8459V13.2734H16.5459ZM18.1826 13.2734V12.9734H16.5459V13.2734V13.5734H18.1826V13.2734ZM16.5459 13.2734H16.8459V11.6367H16.5459H16.2459V13.2734H16.5459ZM16.5459 11.6367V11.9367H18.1826V11.6367V11.3367H16.5459V11.6367ZM18.1826 11.6367H17.8826V13.2734H18.1826H18.4826V11.6367H18.1826ZM19.8184 10H19.5184V11.6367H19.8184H20.1184V10H19.8184ZM19.8184 11.6367V11.3367H18.1826V11.6367V11.9367H19.8184V11.6367ZM18.1826 11.6367H18.4826V10H18.1826H17.8826V11.6367H18.1826ZM18.1826 10V10.3H19.8184V10V9.7H18.1826V10Z" fill="#001A52" mask="url(#path-1-outside-1_191_11496)"/>
</svg>
