<svg width="445" height="881" viewBox="0 0 445 881" fill="none" xmlns="http://www.w3.org/2000/svg">
<g opacity="0.5" clip-path="url(#clip0_1177_12959)">
<line x1="464" y1="29.8203" x2="-5.13804e-08" y2="29.8203" stroke="#9A9A96"/>
<line x1="464" y1="64.8203" x2="-4.77014e-08" y2="64.8203" stroke="#9A9A96"/>
<line x1="464" y1="98.8203" x2="-4.77014e-08" y2="98.8203" stroke="#9A9A96"/>
<line x1="464" y1="133.82" x2="-4.77014e-08" y2="133.82" stroke="#9A9A96"/>
<line x1="464" y1="168.82" x2="-4.77014e-08" y2="168.82" stroke="#9A9A96"/>
<line x1="464" y1="202.82" x2="-4.77014e-08" y2="202.82" stroke="#9A9A96"/>
<line x1="464" y1="237.82" x2="-4.77014e-08" y2="237.82" stroke="#9A9A96"/>
<line x1="464" y1="271.82" x2="-4.77014e-08" y2="271.82" stroke="#9A9A96"/>
<line x1="464" y1="306.82" x2="-4.77014e-08" y2="306.82" stroke="#9A9A96"/>
<line x1="464" y1="341.82" x2="-4.77014e-08" y2="341.82" stroke="#9A9A96"/>
<line x1="464" y1="375.82" x2="-4.77014e-08" y2="375.82" stroke="#9A9A96"/>
<line x1="464" y1="410.82" x2="-4.77014e-08" y2="410.82" stroke="#9A9A96"/>
<line x1="464" y1="444.82" x2="-4.77014e-08" y2="444.82" stroke="#9A9A96"/>
<line x1="464" y1="479.82" x2="-4.77014e-08" y2="479.82" stroke="#9A9A96"/>
<line x1="464" y1="513.82" x2="-4.77014e-08" y2="513.82" stroke="#9A9A96"/>
<line x1="464" y1="548.82" x2="-4.77014e-08" y2="548.82" stroke="#9A9A96"/>
<line x1="464" y1="583.82" x2="-4.77014e-08" y2="583.82" stroke="#9A9A96"/>
<line x1="464" y1="617.82" x2="-4.77014e-08" y2="617.82" stroke="#9A9A96"/>
<line x1="464" y1="652.82" x2="-4.77014e-08" y2="652.82" stroke="#9A9A96"/>
<line x1="464" y1="686.82" x2="-4.77014e-08" y2="686.82" stroke="#9A9A96"/>
<line x1="464" y1="721.82" x2="-4.77014e-08" y2="721.82" stroke="#9A9A96"/>
<line x1="464" y1="756.82" x2="-4.77014e-08" y2="756.82" stroke="#9A9A96"/>
<line x1="464" y1="790.82" x2="-4.77014e-08" y2="790.82" stroke="#9A9A96"/>
<line x1="464" y1="825.82" x2="-4.77014e-08" y2="825.82" stroke="#9A9A96"/>
<line x1="464" y1="859.82" x2="-4.77014e-08" y2="859.82" stroke="#9A9A96"/>
<line x1="32.5" y1="-29.1016" x2="32.5" y2="893.908" stroke="#9A9A96"/>
<line x1="64.5" y1="-29.1016" x2="64.5" y2="893.908" stroke="#9A9A96"/>
<line x1="109.5" y1="-29.1016" x2="109.5" y2="893.908" stroke="#9A9A96"/>
<line x1="141.5" y1="-29.1016" x2="141.5" y2="893.908" stroke="#9A9A96"/>
<line x1="173.5" y1="-29.1016" x2="173.5" y2="893.908" stroke="#9A9A96"/>
<line x1="218.5" y1="-29.1016" x2="218.5" y2="893.908" stroke="#9A9A96"/>
<line x1="250.5" y1="-29.1016" x2="250.5" y2="893.908" stroke="#9A9A96"/>
<line x1="282.5" y1="-29.1016" x2="282.5" y2="893.908" stroke="#9A9A96"/>
<line x1="327.5" y1="-29.1016" x2="327.5" y2="893.908" stroke="#9A9A96"/>
<line x1="359.5" y1="-29.1016" x2="359.5" y2="893.908" stroke="#9A9A96"/>
<line x1="391.5" y1="-29.1016" x2="391.5" y2="893.908" stroke="#9A9A96"/>
<line x1="429.5" y1="-29" x2="429.5" y2="894.01" stroke="#9A9A96"/>
</g>
<defs>
<clipPath id="clip0_1177_12959">
<rect width="445" height="881" fill="white"/>
</clipPath>
</defs>
</svg>
