<svg width="16" height="24" viewBox="0 0 16 24" fill="none" xmlns="http://www.w3.org/2000/svg">
<path d="M4.51185 23.708V22.7963H5.41415V23.708H4.51185ZM14.4382 13.6778V12.7661V11.854V10.9423H13.5359V10.0306H12.6336V9.11888H11.7313V8.20716V7.29545H10.829V6.38374V5.47202H9.92669V4.56031V3.6486V2.73688V1.82517H9.02439V0.913457H8.1221V1.82517H7.2198V2.73688H6.31749V3.6486H5.4152V4.56031V5.47202H4.5129V6.38374H3.61059V7.29545V8.20716V9.11888H2.7083V8.20716H1.80599V9.11888V10.0306H0.903694V10.9423V11.854V12.7657H0V13.6774V14.5892V15.5009V16.4126V17.3243V18.236V19.1477H0.9023V20.0594H1.8046V20.9712V21.8829H2.7069V22.7946H3.6092H4.5115V21.8829H3.6092V20.9712V20.0594V19.1477V18.236V17.3243V16.4126V15.5009H4.5115V16.4126V17.3243V18.236H5.4138V19.1477H6.3161V20.0594H7.2184V19.1477H8.1207V18.236V17.3243V16.4126V15.5009H9.023V14.5892V13.6774H8.1207V12.7657V11.854H9.023V12.7657H9.9253V13.6774V14.5892H10.8276V15.5009V16.4126V17.3243H11.7299V18.236V19.1477V20.0594H10.8276V20.9712V21.8829H9.9253V22.7946V23.708H10.8276V22.7963H11.7299H12.6322V21.8846H13.5345V20.9729H14.4368V20.0612V19.1495H15.3405V18.2378V17.326V16.4143V15.5026V14.5909V13.6792H14.4382V13.6778ZM9.92635 0H9.02405V0.911713H9.92635V0Z" fill="#E51536"/>
</svg>
