<svg width="30" height="38" viewBox="0 0 30 38" fill="none" xmlns="http://www.w3.org/2000/svg">
<mask id="path-1-outside-1_191_11500" maskUnits="userSpaceOnUse" x="8.81836" y="9" width="12" height="20" fill="black">
<rect fill="white" x="8.81836" y="9" width="12" height="20"/>
<path d="M10 28.002H11.6357V26.3652H10V28.002ZM11.6357 26.3652H13.2725V24.7285H11.6357V26.3652ZM13.2725 24.7285H14.9092V23.0928H13.2725V24.7285ZM14.9092 23.0918H16.5449V21.4561H14.9092V23.0918ZM16.5449 21.4561H18.1816V19.8193H16.5449V21.4561ZM18.1816 19.8193H19.8184V18.1826H18.1816V19.8193ZM16.5449 18.1826H18.1816V16.5469L16.5449 16.5459V18.1826ZM14.9092 16.5459L16.5449 16.5469V14.9102H14.9092V16.5459ZM13.2725 14.9102H14.9092V13.2734H13.2725V14.9102ZM11.6357 13.2734H13.2725V11.6367H11.6357V13.2734ZM10 10V11.6367H11.6357V10H10Z"/>
</mask>
<path d="M10 28.002H11.6357V26.3652H10V28.002ZM11.6357 26.3652H13.2725V24.7285H11.6357V26.3652ZM13.2725 24.7285H14.9092V23.0928H13.2725V24.7285ZM14.9092 23.0918H16.5449V21.4561H14.9092V23.0918ZM16.5449 21.4561H18.1816V19.8193H16.5449V21.4561ZM18.1816 19.8193H19.8184V18.1826H18.1816V19.8193ZM16.5449 18.1826H18.1816V16.5469L16.5449 16.5459V18.1826ZM14.9092 16.5459L16.5449 16.5469V14.9102H14.9092V16.5459ZM13.2725 14.9102H14.9092V13.2734H13.2725V14.9102ZM11.6357 13.2734H13.2725V11.6367H11.6357V13.2734ZM10 10V11.6367H11.6357V10H10Z" fill="white"/>
<path d="M10 28.002V28.302H9.7V28.002H10ZM11.6357 28.002H11.9357V28.302H11.6357V28.002ZM10 26.3652H9.7V26.0652H10V26.3652ZM13.2725 26.3652H13.5725V26.6652H13.2725V26.3652ZM11.6357 24.7285H11.3357V24.4285H11.6357V24.7285ZM14.9092 24.7285H15.2092V25.0285H14.9092V24.7285ZM14.9092 23.0928V22.7928H15.2092V23.0928H14.9092ZM13.2725 23.0928H12.9725V22.7928H13.2725V23.0928ZM14.9092 23.0918V23.3918H14.6092V23.0918H14.9092ZM16.5449 23.0918H16.8449V23.3918H16.5449V23.0918ZM14.9092 21.4561H14.6092V21.1561H14.9092V21.4561ZM18.1816 21.4561H18.4816V21.7561H18.1816V21.4561ZM16.5449 19.8193H16.2449V19.5193H16.5449V19.8193ZM19.8184 19.8193H20.1184V20.1193H19.8184V19.8193ZM19.8184 18.1826V17.8826H20.1184V18.1826H19.8184ZM16.5449 18.1826V18.4826H16.2449V18.1826H16.5449ZM18.1816 16.5469L18.1818 16.2469L18.4816 16.2471V16.5469H18.1816ZM16.5449 16.5459H16.2449V16.2457L16.5451 16.2459L16.5449 16.5459ZM14.9092 16.5459L14.909 16.8459L14.6092 16.8457V16.5459H14.9092ZM16.5449 16.5469H16.8449V16.8471L16.5447 16.8469L16.5449 16.5469ZM16.5449 14.9102V14.6102H16.8449V14.9102H16.5449ZM13.2725 14.9102V15.2102H12.9725V14.9102H13.2725ZM14.9092 13.2734V12.9734H15.2092V13.2734H14.9092ZM11.6357 13.2734V13.5734H11.3357V13.2734H11.6357ZM13.2725 11.6367V11.3367H13.5725V11.6367H13.2725ZM10 10H9.7V9.7H10V10ZM10 11.6367V11.9367H9.7V11.6367H10ZM11.6357 10V9.7H11.9357V10H11.6357ZM10 28.002V27.702H11.6357V28.002V28.302H10V28.002ZM11.6357 28.002H11.3357V26.3652H11.6357H11.9357V28.002H11.6357ZM11.6357 26.3652V26.6652H10V26.3652V26.0652H11.6357V26.3652ZM10 26.3652H10.3V28.002H10H9.7V26.3652H10ZM11.6357 26.3652V26.0652H13.2725V26.3652V26.6652H11.6357V26.3652ZM13.2725 26.3652H12.9725V24.7285H13.2725H13.5725V26.3652H13.2725ZM13.2725 24.7285V25.0285H11.6357V24.7285V24.4285H13.2725V24.7285ZM11.6357 24.7285H11.9357V26.3652H11.6357H11.3357V24.7285H11.6357ZM13.2725 24.7285V24.4285H14.9092V24.7285V25.0285H13.2725V24.7285ZM14.9092 24.7285H14.6092V23.0928H14.9092H15.2092V24.7285H14.9092ZM14.9092 23.0928V23.3928H13.2725V23.0928V22.7928H14.9092V23.0928ZM13.2725 23.0928H13.5725V24.7285H13.2725H12.9725V23.0928H13.2725ZM14.9092 23.0918V22.7918H16.5449V23.0918V23.3918H14.9092V23.0918ZM16.5449 23.0918H16.2449V21.4561H16.5449H16.8449V23.0918H16.5449ZM16.5449 21.4561V21.7561H14.9092V21.4561V21.1561H16.5449V21.4561ZM14.9092 21.4561H15.2092V23.0918H14.9092H14.6092V21.4561H14.9092ZM16.5449 21.4561V21.1561H18.1816V21.4561V21.7561H16.5449V21.4561ZM18.1816 21.4561H17.8816V19.8193H18.1816H18.4816V21.4561H18.1816ZM18.1816 19.8193V20.1193H16.5449V19.8193V19.5193H18.1816V19.8193ZM16.5449 19.8193H16.8449V21.4561H16.5449H16.2449V19.8193H16.5449ZM18.1816 19.8193V19.5193H19.8184V19.8193V20.1193H18.1816V19.8193ZM19.8184 19.8193H19.5184V18.1826H19.8184H20.1184V19.8193H19.8184ZM19.8184 18.1826V18.4826H18.1816V18.1826V17.8826H19.8184V18.1826ZM18.1816 18.1826H18.4816V19.8193H18.1816H17.8816V18.1826H18.1816ZM16.5449 18.1826V17.8826H18.1816V18.1826V18.4826H16.5449V18.1826ZM18.1816 18.1826H17.8816V16.5469H18.1816H18.4816V18.1826H18.1816ZM18.1816 16.5469L18.1815 16.8469L16.5447 16.8459L16.5449 16.5459L16.5451 16.2459L18.1818 16.2469L18.1816 16.5469ZM16.5449 16.5459H16.8449V18.1826H16.5449H16.2449V16.5459H16.5449ZM14.9092 16.5459L14.9094 16.2459L16.5451 16.2469L16.5449 16.5469L16.5447 16.8469L14.909 16.8459L14.9092 16.5459ZM16.5449 16.5469H16.2449V14.9102H16.5449H16.8449V16.5469H16.5449ZM16.5449 14.9102V15.2102H14.9092V14.9102V14.6102H16.5449V14.9102ZM14.9092 14.9102H15.2092V16.5459H14.9092H14.6092V14.9102H14.9092ZM13.2725 14.9102V14.6102H14.9092V14.9102V15.2102H13.2725V14.9102ZM14.9092 14.9102H14.6092V13.2734H14.9092H15.2092V14.9102H14.9092ZM14.9092 13.2734V13.5734H13.2725V13.2734V12.9734H14.9092V13.2734ZM13.2725 13.2734H13.5725V14.9102H13.2725H12.9725V13.2734H13.2725ZM11.6357 13.2734V12.9734H13.2725V13.2734V13.5734H11.6357V13.2734ZM13.2725 13.2734H12.9725V11.6367H13.2725H13.5725V13.2734H13.2725ZM13.2725 11.6367V11.9367H11.6357V11.6367V11.3367H13.2725V11.6367ZM11.6357 11.6367H11.9357V13.2734H11.6357H11.3357V11.6367H11.6357ZM10 10H10.3V11.6367H10H9.7V10H10ZM10 11.6367V11.3367H11.6357V11.6367V11.9367H10V11.6367ZM11.6357 11.6367H11.3357V10H11.6357H11.9357V11.6367H11.6357ZM11.6357 10V10.3H10V10V9.7H11.6357V10Z" fill="white" mask="url(#path-1-outside-1_191_11500)"/>
</svg>
