<svg width="59" height="62" viewBox="0 0 59 62" fill="none" xmlns="http://www.w3.org/2000/svg">
<path d="M38.2812 61.8369H17.6621V58.9004H38.2812V61.8369ZM17.6621 58.9004H11.7686V55.9434H17.6621V58.9004ZM44.1748 58.9004H38.2812V55.9434H44.1748V58.9004ZM11.7686 55.9434H8.83105V53.0059H11.7686V55.9434ZM47.1123 55.9434H44.1748V53.0059H47.1123V55.9434ZM8.83105 53.0059H5.89355V50.0498H8.83105V53.0059ZM50.0498 53.0059H47.1123V50.0498H50.0498V53.0059ZM5.89355 50.0488H2.9375V47.1123H5.89355V50.0488ZM29.4502 50.0488H23.5557V47.1123H29.4502V50.0488ZM55.9434 50.0488H50.0498V47.1123H55.9434V50.0488ZM2.9375 47.1123H0V38.2812H2.9375V47.1123ZM23.5557 47.1123H20.6191V41.2188H23.5557V47.1123ZM32.3877 47.1123H29.4502V41.2188H32.3877V47.1123ZM50.0498 47.1123H47.1123V41.2188H50.0498V47.1123ZM58.9004 47.1123H55.9434V38.2812H58.9004V47.1123ZM11.7686 41.2188H5.89355V38.2812H11.7686V41.2188ZM5.89355 38.2812H2.9375V35.3438H5.89355V38.2812ZM14.7246 38.2812H11.7686V20.6191H14.7246V38.2812ZM41.2188 38.2812H32.3877V29.4502H41.2188V38.2812ZM55.9434 38.2812H53.0059V20.6191H55.9434V38.2812ZM35.3242 35.3438H38.2812V32.3867H35.3242V35.3438ZM2.9375 29.4502H0V26.4932H2.9375V29.4502ZM29.4502 23.5557H32.3877V26.4932H29.4502V29.4502H26.4932V26.4932H23.5557V23.5557H26.4932V20.6191H29.4502V23.5557ZM47.1123 23.5557H50.0498V26.4932H47.1123V29.4502H44.1748V26.4932H41.2188V23.5557H44.1748V20.6191H47.1123V23.5557ZM8.83105 20.6191H0V17.6621H8.83105V20.6191ZM17.6621 20.6191H14.7246V14.7256H17.6621V20.6191ZM53.0059 20.6191H50.0498V14.7256H53.0059V20.6191ZM11.7686 17.6621H8.83105V8.83105H11.7686V17.6621ZM5.89355 14.7246H2.9375V11.7881H5.89355V14.7246ZM20.6191 14.7246H17.6621V11.7881H20.6191V14.7246ZM50.0498 14.7246H47.1123V11.7881H50.0498V14.7246ZM2.9375 8.83105V11.7881H0V8.83105H2.9375ZM26.4932 11.7881H20.6191V8.83105H26.4932V11.7881ZM47.1123 11.7881H41.2188V8.83105H47.1123V11.7881ZM8.83105 8.83105H2.9375V5.89453H8.83105V8.83105ZM41.2188 8.83105H26.4932V5.89453H41.2188V8.83105ZM55.9434 2.9375H58.9004V5.89355H55.9434V8.83105H53.0059V5.89355H50.0498V2.9375H53.0059V0H55.9434V2.9375ZM20.6191 2.9375H17.6621V0H20.6191V2.9375Z" fill="#001A52"/>
</svg>
