<svg width="44" height="44" viewBox="0 0 44 44" fill="none" xmlns="http://www.w3.org/2000/svg">
<path d="M28 12H24V16H28V12Z" fill="#001A52"/>
<path d="M20 28H16V32H20V28Z" fill="#001A52"/>
<path d="M16 28H12V32H16V28Z" fill="#001A52"/>
<path d="M32 12H28V16H32V12Z" fill="#001A52"/>
<path d="M20 12H16V16H20V12Z" fill="#001A52"/>
<path d="M24 12H20V16H24V12Z" fill="#001A52"/>
<path d="M24 28H20V32H24V28Z" fill="#001A52"/>
<path d="M28 28H24V32H28V28Z" fill="#001A52"/>
<path d="M32 28H28V32H32V28Z" fill="#001A52"/>
<path d="M16 12H12V16H16V12Z" fill="#001A52"/>
</svg>
