<svg width="116" height="44" viewBox="0 0 116 44" fill="none" xmlns="http://www.w3.org/2000/svg">
<path d="M14.0392 25.3806C13.1993 25.3806 12.7793 25.8006 12.7793 26.6405V34.5601C12.7793 35.64 12.2393 36.18 11.1594 36.18H10.4394C9.35947 36.18 8.8195 35.64 8.8195 34.5601V26.6405C8.8195 25.8006 8.39952 25.3806 7.55957 25.3806H6.83961C5.75967 25.3806 5.2197 24.8406 5.2197 23.7607V23.0407C5.2197 22.2008 4.79973 21.7808 3.95978 21.7808H3.23982C2.15988 21.7808 1.61991 21.2408 1.61991 20.1609V12.2413C1.61991 11.1614 2.15988 10.6214 3.23982 10.6214H3.95978C5.03971 10.6214 5.57968 11.1614 5.57968 12.2413V20.1609C5.57968 21.0009 5.99966 21.4208 6.83961 21.4208H7.55957C8.63951 21.4208 9.17948 21.9608 9.17948 23.0407V23.7607C9.17948 24.6006 9.59946 25.0206 10.4394 25.0206H11.1594C11.9993 25.0206 12.4193 24.6006 12.4193 23.7607V23.0407C12.4193 21.9608 12.9593 21.4208 14.0392 21.4208H14.7592C15.5991 21.4208 16.0191 21.0009 16.0191 20.1609V12.2413C16.0191 11.1614 16.5591 10.6214 17.639 10.6214H18.359C19.4389 10.6214 19.9789 11.1614 19.9789 12.2413V20.1609C19.9789 21.2408 19.4389 21.7808 18.359 21.7808H17.639C16.799 21.7808 16.3791 22.2008 16.3791 23.0407V23.7607C16.3791 24.8406 15.8391 25.3806 14.7592 25.3806H14.0392ZM36.3579 21.4208C37.4379 21.4208 37.9778 21.9608 37.9778 23.0407V23.8687C37.9418 24.8766 37.4019 25.3806 36.3579 25.3806H35.638C34.594 25.3806 34.0541 24.8766 34.0181 23.8687V23.0407C34.0181 22.2008 33.5981 21.7808 32.7581 21.7808H28.4384C27.5984 21.7808 27.1785 22.2008 27.1785 23.0407V34.5601C27.1785 35.64 26.6385 36.18 25.5585 36.18H24.8386C23.7587 36.18 23.2187 35.64 23.2187 34.5601V19.4409C23.2187 18.361 23.7587 17.821 24.8386 17.821H32.7581C33.8381 17.821 34.378 18.361 34.378 19.4409V20.1609C34.378 21.0009 34.798 21.4208 35.638 21.4208H36.3579ZM46.4374 36.18C45.3574 36.18 44.8175 35.64 44.8175 34.5601V33.8401C44.8175 33.0002 44.3975 32.5802 43.5575 32.5802H42.8376C41.7576 32.5802 41.2177 32.0402 41.2177 30.9603V23.0407C41.2177 21.9608 41.7576 21.4208 42.8376 21.4208H43.5575C44.3975 21.4208 44.8175 21.0009 44.8175 20.1609V19.4409C44.8175 18.361 45.3574 17.821 46.4374 17.821H50.7571C51.8371 17.821 52.377 18.361 52.377 19.4409V20.1609C52.377 21.0009 52.797 21.4208 53.637 21.4208H54.3569C55.4369 21.4208 55.9768 21.9608 55.9768 23.0407V38.1599C55.9768 39.2398 55.4369 39.7798 54.3569 39.7798H53.637C52.797 39.7798 52.377 40.1998 52.377 41.0397V41.7597C52.377 42.8396 51.8371 43.3796 50.7571 43.3796H46.4374C45.3574 43.3796 44.8175 42.8396 44.8175 41.7597V41.0397C44.8175 39.9598 45.3574 39.4198 46.4374 39.4198H50.7571C51.5971 39.4198 52.017 38.9998 52.017 38.1599V37.4399C52.017 36.6 51.5971 36.18 50.7571 36.18H46.4374ZM50.7571 32.2202C51.5971 32.2202 52.017 31.8002 52.017 30.9603V23.0407C52.017 22.2008 51.5971 21.7808 50.7571 21.7808H46.4374C45.5974 21.7808 45.1774 22.2008 45.1774 23.0407V30.9603C45.1774 31.8002 45.5974 32.2202 46.4374 32.2202H50.7571ZM61.5565 32.5802H60.8365C59.7566 32.5802 59.2166 32.0402 59.2166 30.9603V23.0407C59.2166 21.9608 59.7566 21.4208 60.8365 21.4208H61.5565C62.3965 21.4208 62.8164 21.0009 62.8164 20.1609V19.4409C62.8164 18.361 63.3564 17.821 64.4363 17.821H68.7561C69.836 17.821 70.376 18.361 70.376 19.4409V20.1609C70.376 21.0009 70.796 21.4208 71.6359 21.4208H72.3559C73.4358 21.4208 73.9758 21.9608 73.9758 23.0407V30.9603C73.9758 32.0402 73.4358 32.5802 72.3559 32.5802H71.6359C70.796 32.5802 70.376 33.0002 70.376 33.8401V34.5601C70.376 35.64 69.836 36.18 68.7561 36.18H64.4363C63.3564 36.18 62.8164 35.64 62.8164 34.5601V33.8401C62.8164 33.0002 62.3965 32.5802 61.5565 32.5802ZM63.1764 23.0407V30.9603C63.1764 31.8002 63.5964 32.2202 64.4363 32.2202H68.7561C69.596 32.2202 70.016 31.8002 70.016 30.9603V23.0407C70.016 22.2008 69.596 21.7808 68.7561 21.7808H64.4363C63.5964 21.7808 63.1764 22.2008 63.1764 23.0407ZM86.7551 21.4208C87.595 21.4208 88.015 21.0009 88.015 20.1609V19.4409C88.015 18.361 88.555 17.821 89.6349 17.821H90.3549C91.1948 17.821 91.6148 17.4011 91.6148 16.5611V12.2413C91.6148 11.1614 92.1548 10.6214 93.2347 10.6214H93.9547C95.0346 10.6214 95.5746 11.1614 95.5746 12.2413V16.5611C95.5746 17.641 95.0346 18.181 93.9547 18.181H93.2347C92.3947 18.181 91.9748 18.601 91.9748 19.4409V20.1609C91.9748 21.2408 91.4348 21.7808 90.3549 21.7808H89.6349C88.795 21.7808 88.375 22.2008 88.375 23.0407V23.7607C88.375 24.6006 88.795 25.0206 89.6349 25.0206H90.3549C91.4348 25.0206 91.9748 25.5606 91.9748 26.6405V27.3605C91.9748 28.2004 92.3947 28.6204 93.2347 28.6204H93.9547C95.0346 28.6204 95.5746 29.1604 95.5746 30.2403V34.5601C95.5746 35.64 95.0346 36.18 93.9547 36.18H93.2347C92.1548 36.18 91.6148 35.64 91.6148 34.5601V30.2403C91.6148 29.4004 91.1948 28.9804 90.3549 28.9804H89.6349C88.555 28.9804 88.015 28.4404 88.015 27.3605V26.6405C88.015 25.8006 87.595 25.3806 86.7551 25.3806H86.0351C85.1952 25.3806 84.7752 25.8006 84.7752 26.6405V27.3605C84.7752 28.4404 84.2352 28.9804 83.1553 28.9804H82.4353C81.5954 28.9804 81.1754 29.4004 81.1754 30.2403V34.5601C81.1754 35.64 80.6354 36.18 79.5555 36.18H78.8355C77.7556 36.18 77.2156 35.64 77.2156 34.5601V30.2403C77.2156 29.1604 77.7556 28.6204 78.8355 28.6204H79.5555C80.3954 28.6204 80.8154 28.2004 80.8154 27.3605V26.6405C80.8154 25.5606 81.3554 25.0206 82.4353 25.0206H83.1553C83.9952 25.0206 84.4152 24.6006 84.4152 23.7607V23.0407C84.4152 22.2008 83.9952 21.7808 83.1553 21.7808H82.4353C81.3554 21.7808 80.8154 21.2408 80.8154 20.1609V19.4409C80.8154 18.601 80.3954 18.181 79.5555 18.181H78.8355C77.7556 18.181 77.2156 17.641 77.2156 16.5611V12.2413C77.2156 11.1614 77.7556 10.6214 78.8355 10.6214H79.5555C80.6354 10.6214 81.1754 11.1614 81.1754 12.2413V16.5611C81.1754 17.4011 81.5954 17.821 82.4353 17.821H83.1553C84.2352 17.821 84.7752 18.361 84.7752 19.4409V20.1609C84.7752 21.0009 85.1952 21.4208 86.0351 21.4208H86.7551ZM102.774 23.0407V30.9603C102.774 31.8002 103.194 32.2202 104.034 32.2202H108.354C109.194 32.2202 109.614 31.8002 109.614 30.9603V23.0407C109.614 22.2008 109.194 21.7808 108.354 21.7808H104.034C103.194 21.7808 102.774 22.2008 102.774 23.0407ZM102.774 41.7597C102.774 42.8396 102.234 43.3796 101.154 43.3796H100.434C99.3544 43.3796 98.8144 42.8396 98.8144 41.7597V19.4409C98.8144 18.361 99.3544 17.821 100.434 17.821H108.354C109.434 17.821 109.974 18.361 109.974 19.4409V20.1609C109.974 21.0009 110.394 21.4208 111.234 21.4208H111.954C113.034 21.4208 113.574 21.9608 113.574 23.0407V30.9603C113.574 32.0402 113.034 32.5802 111.954 32.5802H111.234C110.394 32.5802 109.974 33.0002 109.974 33.8401V34.5601C109.974 35.64 109.434 36.18 108.354 36.18H104.034C103.194 36.18 102.774 36.6 102.774 37.4399V41.7597Z" fill="#E51536"/>
</svg>
