<svg width="123" height="44" viewBox="0 0 123 44" fill="none" xmlns="http://www.w3.org/2000/svg">
<path d="M14.0392 25.3806C13.1993 25.3806 12.7793 25.8006 12.7793 26.6405V34.5601C12.7793 35.64 12.2393 36.18 11.1594 36.18H10.4394C9.35947 36.18 8.8195 35.64 8.8195 34.5601V26.6405C8.8195 25.8006 8.39952 25.3806 7.55957 25.3806H6.83961C5.75967 25.3806 5.2197 24.8406 5.2197 23.7607V23.0407C5.2197 22.2008 4.79973 21.7808 3.95978 21.7808H3.23982C2.15988 21.7808 1.61991 21.2408 1.61991 20.1609V12.2413C1.61991 11.1614 2.15988 10.6214 3.23982 10.6214H3.95978C5.03971 10.6214 5.57968 11.1614 5.57968 12.2413V20.1609C5.57968 21.0009 5.99966 21.4208 6.83961 21.4208H7.55957C8.63951 21.4208 9.17948 21.9608 9.17948 23.0407V23.7607C9.17948 24.6006 9.59946 25.0206 10.4394 25.0206H11.1594C11.9993 25.0206 12.4193 24.6006 12.4193 23.7607V23.0407C12.4193 21.9608 12.9593 21.4208 14.0392 21.4208H14.7592C15.5991 21.4208 16.0191 21.0009 16.0191 20.1609V12.2413C16.0191 11.1614 16.5591 10.6214 17.639 10.6214H18.359C19.4389 10.6214 19.9789 11.1614 19.9789 12.2413V20.1609C19.9789 21.2408 19.4389 21.7808 18.359 21.7808H17.639C16.799 21.7808 16.3791 22.2008 16.3791 23.0407V23.7607C16.3791 24.8406 15.8391 25.3806 14.7592 25.3806H14.0392ZM28.4384 28.9804C27.5984 28.9804 27.1785 29.4004 27.1785 30.2403V34.5601C27.1785 35.64 26.6385 36.18 25.5585 36.18H24.8386C23.7587 36.18 23.2187 35.64 23.2187 34.5601V12.2413C23.2187 11.1614 23.7587 10.6214 24.8386 10.6214H32.7581C33.8381 10.6214 34.378 11.1614 34.378 12.2413V12.9613C34.378 13.8013 34.798 14.2212 35.638 14.2212H36.3579C37.4379 14.2212 37.9778 14.7612 37.9778 15.8411V23.7607C37.9778 24.8406 37.4379 25.3806 36.3579 25.3806H35.638C34.798 25.3806 34.378 25.8006 34.378 26.6405V27.3605C34.378 28.2004 34.798 28.6204 35.638 28.6204H36.3579C37.4379 28.6204 37.9778 29.1604 37.9778 30.2403V34.5601C37.9778 35.64 37.4379 36.18 36.3579 36.18H35.638C34.558 36.18 34.0181 35.64 34.0181 34.5601V30.2403C34.0181 29.4004 33.5981 28.9804 32.7581 28.9804H28.4384ZM32.7581 25.0206C33.5981 25.0206 34.0181 24.6006 34.0181 23.7607V15.8411C34.0181 15.0012 33.5981 14.5812 32.7581 14.5812H28.4384C27.5984 14.5812 27.1785 15.0012 27.1785 15.8411V23.7607C27.1785 24.6006 27.5984 25.0206 28.4384 25.0206H32.7581ZM55.9768 30.9603C55.9768 32.0402 55.4369 32.5802 54.3569 32.5802H53.637C52.797 32.5802 52.377 33.0002 52.377 33.8401V34.5601C52.377 35.64 51.8371 36.18 50.7571 36.18H46.4374C45.3574 36.18 44.8175 35.64 44.8175 34.5601V33.8401C44.8175 33.0002 44.3975 32.5802 43.5575 32.5802H42.8376C41.7576 32.5802 41.2177 32.0402 41.2177 30.9603V15.8411C41.2177 14.7612 41.7576 14.2212 42.8376 14.2212H43.5575C44.3975 14.2212 44.8175 13.8013 44.8175 12.9613V12.2413C44.8175 11.1614 45.3574 10.6214 46.4374 10.6214H50.7571C51.8371 10.6214 52.377 11.1614 52.377 12.2413V12.9613C52.377 13.8013 52.797 14.2212 53.637 14.2212H54.3569C55.4369 14.2212 55.9768 14.7612 55.9768 15.8411V16.5611C55.9768 17.641 55.4369 18.181 54.3569 18.181H53.637C52.557 18.181 52.017 17.641 52.017 16.5611V15.8411C52.017 15.0012 51.5971 14.5812 50.7571 14.5812H46.4374C45.5974 14.5812 45.1774 15.0012 45.1774 15.8411V30.9603C45.1774 31.8002 45.5974 32.2202 46.4374 32.2202H50.7571C51.5971 32.2202 52.017 31.8002 52.017 30.9603V28.4404C52.017 27.6005 51.5971 27.1805 50.7571 27.1805H50.0372C48.9572 27.1805 48.4173 26.6405 48.4173 25.5606V24.8406C48.4173 23.7607 48.9572 23.2207 50.0372 23.2207H54.3569C55.4369 23.2207 55.9768 23.7607 55.9768 24.8406V30.9603ZM64.4363 32.2202H68.7561C69.596 32.2202 70.016 31.8002 70.016 30.9603V15.8411C70.016 15.0012 69.596 14.5812 68.7561 14.5812H64.4363C63.5964 14.5812 63.1764 15.0012 63.1764 15.8411V30.9603C63.1764 31.8002 63.5964 32.2202 64.4363 32.2202ZM70.376 33.8401V34.5601C70.376 35.64 69.836 36.18 68.7561 36.18H64.4363C63.3564 36.18 62.8164 35.64 62.8164 34.5601V33.8401C62.8164 33.0002 62.3965 32.5802 61.5565 32.5802H60.8365C59.7566 32.5802 59.2166 32.0402 59.2166 30.9603V15.8411C59.2166 14.7612 59.7566 14.2212 60.8365 14.2212H61.5565C62.3965 14.2212 62.8164 13.8013 62.8164 12.9613V12.2413C62.8164 11.1614 63.3564 10.6214 64.4363 10.6214H68.7561C69.836 10.6214 70.376 11.1614 70.376 12.2413V12.9613C70.376 13.8013 70.796 14.2212 71.6359 14.2212H72.3559C73.4358 14.2212 73.9758 14.7612 73.9758 15.8411V30.9603C73.9758 32.0402 73.4358 32.5802 72.3559 32.5802H71.6359C70.796 32.5802 70.376 33.0002 70.376 33.8401ZM79.5555 28.6204C80.6354 28.6204 81.1754 29.1604 81.1754 30.2403V30.9603C81.1754 32.0402 80.6354 32.5802 79.5555 32.5802H78.8355C77.7556 32.5802 77.2156 32.0402 77.2156 30.9603V30.2403C77.2156 29.1604 77.7556 28.6204 78.8355 28.6204H79.5555ZM79.5555 17.821C80.6354 17.821 81.1754 18.361 81.1754 19.4409V20.1609C81.1754 21.2408 80.6354 21.7808 79.5555 21.7808H78.8355C77.7556 21.7808 77.2156 21.2408 77.2156 20.1609V19.4409C77.2156 18.361 77.7556 17.821 78.8355 17.821H79.5555ZM93.9547 21.4208C94.7946 21.4208 95.2146 21.0009 95.2146 20.1609V19.4409C95.2146 18.361 95.7546 17.821 96.8345 17.821H97.5545C98.3944 17.821 98.8144 17.4011 98.8144 16.5611V12.2413C98.8144 11.1614 99.3544 10.6214 100.434 10.6214H101.154C102.234 10.6214 102.774 11.1614 102.774 12.2413V16.5611C102.774 17.641 102.234 18.181 101.154 18.181H100.434C99.5943 18.181 99.1744 18.601 99.1744 19.4409V20.1609C99.1744 21.2408 98.6344 21.7808 97.5545 21.7808H96.8345C95.9945 21.7808 95.5746 22.2008 95.5746 23.0407V23.7607C95.5746 24.6006 95.9945 25.0206 96.8345 25.0206H97.5545C98.6344 25.0206 99.1744 25.5606 99.1744 26.6405V27.3605C99.1744 28.2004 99.5943 28.6204 100.434 28.6204H101.154C102.234 28.6204 102.774 29.1604 102.774 30.2403V34.5601C102.774 35.64 102.234 36.18 101.154 36.18H100.434C99.3544 36.18 98.8144 35.64 98.8144 34.5601V30.2403C98.8144 29.4004 98.3944 28.9804 97.5545 28.9804H96.8345C95.7546 28.9804 95.2146 28.4404 95.2146 27.3605V26.6405C95.2146 25.8006 94.7946 25.3806 93.9547 25.3806H93.2347C92.3948 25.3806 91.9748 25.8006 91.9748 26.6405V27.3605C91.9748 28.4404 91.4348 28.9804 90.3549 28.9804H89.6349C88.795 28.9804 88.375 29.4004 88.375 30.2403V34.5601C88.375 35.64 87.835 36.18 86.7551 36.18H86.0351C84.9552 36.18 84.4152 35.64 84.4152 34.5601V30.2403C84.4152 29.1604 84.9552 28.6204 86.0351 28.6204H86.7551C87.595 28.6204 88.015 28.2004 88.015 27.3605V26.6405C88.015 25.5606 88.555 25.0206 89.6349 25.0206H90.3549C91.1948 25.0206 91.6148 24.6006 91.6148 23.7607V23.0407C91.6148 22.2008 91.1948 21.7808 90.3549 21.7808H89.6349C88.555 21.7808 88.015 21.2408 88.015 20.1609V19.4409C88.015 18.601 87.595 18.181 86.7551 18.181H86.0351C84.9552 18.181 84.4152 17.641 84.4152 16.5611V12.2413C84.4152 11.1614 84.9552 10.6214 86.0351 10.6214H86.7551C87.835 10.6214 88.375 11.1614 88.375 12.2413V16.5611C88.375 17.4011 88.795 17.821 89.6349 17.821H90.3549C91.4348 17.821 91.9748 18.361 91.9748 19.4409V20.1609C91.9748 21.0009 92.3948 21.4208 93.2347 21.4208H93.9547ZM109.974 15.8411V23.7607C109.974 24.6006 110.394 25.0206 111.234 25.0206H115.553C116.393 25.0206 116.813 24.6006 116.813 23.7607V15.8411C116.813 15.0012 116.393 14.5812 115.553 14.5812H111.234C110.394 14.5812 109.974 15.0012 109.974 15.8411ZM109.974 34.5601C109.974 35.64 109.434 36.18 108.354 36.18H107.634C106.554 36.18 106.014 35.64 106.014 34.5601V12.2413C106.014 11.1614 106.554 10.6214 107.634 10.6214H115.553C116.633 10.6214 117.173 11.1614 117.173 12.2413V12.9613C117.173 13.8013 117.593 14.2212 118.433 14.2212H119.153C120.233 14.2212 120.773 14.7612 120.773 15.8411V23.7607C120.773 24.8406 120.233 25.3806 119.153 25.3806H118.433C117.593 25.3806 117.173 25.8006 117.173 26.6405V27.3605C117.173 28.4404 116.633 28.9804 115.553 28.9804H111.234C110.394 28.9804 109.974 29.4004 109.974 30.2403V34.5601Z" fill="#E51536"/>
</svg>
