<svg width="84" height="44" viewBox="0 0 84 44" fill="none" xmlns="http://www.w3.org/2000/svg">
<mask id="path-1-outside-1_600_1945" maskUnits="userSpaceOnUse" x="0" y="0" width="84" height="44" fill="black">
<rect fill="white" width="84" height="44"/>
<path d="M69.0586 2V4.5H74.2354V7H76.8232V9.5H79.4121V14.5H82V29.5H79.4121V34.5H76.8232V37H74.2354V39.5H69.0586V42H14.9414V39.5H9.76465V37H7.17676V34.5H4.58789V29.5H2V14.5H4.58789V9.5H7.17676V7H9.76465V4.5H14.9414V2H69.0586Z"/>
</mask>
<path d="M69.0586 2H71.0586V0H69.0586V2ZM69.0586 4.5H67.0586V6.5H69.0586V4.5ZM74.2354 4.5H76.2354V2.5H74.2354V4.5ZM74.2354 7H72.2354V9H74.2354V7ZM76.8232 7H78.8232V5H76.8232V7ZM76.8232 9.5H74.8232V11.5H76.8232V9.5ZM79.4121 9.5H81.4121V7.5H79.4121V9.5ZM79.4121 14.5H77.4121V16.5H79.4121V14.5ZM82 14.5H84V12.5H82V14.5ZM82 29.5V31.5H84V29.5H82ZM79.4121 29.5V27.5H77.4121V29.5H79.4121ZM79.4121 34.5V36.5H81.4121V34.5H79.4121ZM76.8232 34.5V32.5H74.8232V34.5H76.8232ZM76.8232 37V39H78.8232V37H76.8232ZM74.2354 37V35H72.2354V37H74.2354ZM74.2354 39.5V41.5H76.2354V39.5H74.2354ZM69.0586 39.5V37.5H67.0586V39.5H69.0586ZM69.0586 42V44H71.0586V42H69.0586ZM14.9414 42H12.9414V44H14.9414V42ZM14.9414 39.5H16.9414V37.5H14.9414V39.5ZM9.76465 39.5H7.76465V41.5H9.76465V39.5ZM9.76465 37H11.7646V35H9.76465V37ZM7.17676 37H5.17676V39H7.17676V37ZM7.17676 34.5H9.17676V32.5H7.17676V34.5ZM4.58789 34.5H2.58789V36.5H4.58789V34.5ZM4.58789 29.5H6.58789V27.5H4.58789V29.5ZM2 29.5H0V31.5H2V29.5ZM2 14.5V12.5H0V14.5H2ZM4.58789 14.5V16.5H6.58789V14.5H4.58789ZM4.58789 9.5V7.5H2.58789V9.5H4.58789ZM7.17676 9.5V11.5H9.17676V9.5H7.17676ZM7.17676 7V5H5.17676V7H7.17676ZM9.76465 7V9H11.7646V7H9.76465ZM9.76465 4.5V2.5H7.76465V4.5H9.76465ZM14.9414 4.5V6.5H16.9414V4.5H14.9414ZM14.9414 2V0H12.9414V2H14.9414ZM69.0586 2H67.0586V4.5H69.0586H71.0586V2H69.0586ZM69.0586 4.5V6.5H74.2354V4.5V2.5H69.0586V4.5ZM74.2354 4.5H72.2354V7H74.2354H76.2354V4.5H74.2354ZM74.2354 7V9H76.8232V7V5H74.2354V7ZM76.8232 7H74.8232V9.5H76.8232H78.8232V7H76.8232ZM76.8232 9.5V11.5H79.4121V9.5V7.5H76.8232V9.5ZM79.4121 9.5H77.4121V14.5H79.4121H81.4121V9.5H79.4121ZM79.4121 14.5V16.5H82V14.5V12.5H79.4121V14.5ZM82 14.5H80V29.5H82H84V14.5H82ZM82 29.5V27.5H79.4121V29.5V31.5H82V29.5ZM79.4121 29.5H77.4121V34.5H79.4121H81.4121V29.5H79.4121ZM79.4121 34.5V32.5H76.8232V34.5V36.5H79.4121V34.5ZM76.8232 34.5H74.8232V37H76.8232H78.8232V34.5H76.8232ZM76.8232 37V35H74.2354V37V39H76.8232V37ZM74.2354 37H72.2354V39.5H74.2354H76.2354V37H74.2354ZM74.2354 39.5V37.5H69.0586V39.5V41.5H74.2354V39.5ZM69.0586 39.5H67.0586V42H69.0586H71.0586V39.5H69.0586ZM69.0586 42V40H14.9414V42V44H69.0586V42ZM14.9414 42H16.9414V39.5H14.9414H12.9414V42H14.9414ZM14.9414 39.5V37.5H9.76465V39.5V41.5H14.9414V39.5ZM9.76465 39.5H11.7646V37H9.76465H7.76465V39.5H9.76465ZM9.76465 37V35H7.17676V37V39H9.76465V37ZM7.17676 37H9.17676V34.5H7.17676H5.17676V37H7.17676ZM7.17676 34.5V32.5H4.58789V34.5V36.5H7.17676V34.5ZM4.58789 34.5H6.58789V29.5H4.58789H2.58789V34.5H4.58789ZM4.58789 29.5V27.5H2V29.5V31.5H4.58789V29.5ZM2 29.5H4V14.5H2H0V29.5H2ZM2 14.5V16.5H4.58789V14.5V12.5H2V14.5ZM4.58789 14.5H6.58789V9.5H4.58789H2.58789V14.5H4.58789ZM4.58789 9.5V11.5H7.17676V9.5V7.5H4.58789V9.5ZM7.17676 9.5H9.17676V7H7.17676H5.17676V9.5H7.17676ZM7.17676 7V9H9.76465V7V5H7.17676V7ZM9.76465 7H11.7646V4.5H9.76465H7.76465V7H9.76465ZM9.76465 4.5V6.5H14.9414V4.5V2.5H9.76465V4.5ZM14.9414 4.5H16.9414V2H14.9414H12.9414V4.5H14.9414ZM14.9414 2V4H69.0586V2V0H14.9414V2Z" fill="#001A52" mask="url(#path-1-outside-1_600_1945)"/>
</svg>
