<svg version="1.2" xmlns="http://www.w3.org/2000/svg" viewBox="0 0 84 44" width="84" height="44">
	<defs>
		<clipPath clipPathUnits="userSpaceOnUse" id="cp1">
			<path d="m69.06 2h2v-2h-2zm0 2.5h-2v2h2zm5.18 0h2v-2h-2zm0 2.5h-2v2h2zm2.58 0h2v-2h-2zm0 2.5h-2v2h2zm2.59 0h2v-2h-2zm0 5h-2v2h2zm2.59 0h2v-2h-2zm0 15v2h2v-2zm-2.59 0v-2h-2v2zm0 5v2h2v-2zm-2.59 0v-2h-2v2zm0 2.5v2h2v-2zm-2.58 0v-2h-2v2zm0 2.5v2h2v-2zm-5.18 0v-2h-2v2zm0 2.5v2h2v-2zm-54.12 0h-2v2h2zm0-2.5h2v-2h-2zm-5.18 0h-2v2h2zm0-2.5h2v-2h-2zm-2.58 0h-2v2h2zm0-2.5h2v-2h-2zm-2.59 0h-2v2h2zm0-5h2v-2h-2zm-2.59 0h-2v2h2zm0-15v-2h-2v2zm2.59 0v2h2v-2zm0-5v-2h-2v2zm2.59 0v2h2v-2zm0-2.5v-2h-2v2zm2.58 0v2h2v-2zm0-2.5v-2h-2v2zm5.18 0v2h2v-2zm0-2.5v-2h-2v2zm54.12 0h-2v2.5h2 2v-2.5zm0 2.5v2h5.18v-2-2h-5.18zm5.18 0h-2v2.5h2 2v-2.5zm0 2.5v2h2.58v-2-2h-2.58zm2.58 0h-2v2.5h2 2v-2.5zm0 2.5v2h2.59v-2-2h-2.59zm2.59 0h-2v5h2 2v-5zm0 5v2h2.59v-2-2h-2.59zm2.59 0h-2v15h2 2v-15zm0 15v-2h-2.59v2 2h2.59zm-2.59 0h-2v5h2 2v-5zm0 5v-2h-2.59v2 2h2.59zm-2.59 0h-2v2.5h2 2v-2.5zm0 2.5v-2h-2.58v2 2h2.58zm-2.58 0h-2v2.5h2 2v-2.5zm0 2.5v-2h-5.18v2 2h5.18zm-5.18 0h-2v2.5h2 2v-2.5zm0 2.5v-2h-54.12v2 2h54.12zm-54.12 0h2v-2.5h-2-2v2.5zm0-2.5v-2h-5.18v2 2h5.18zm-5.18 0h2v-2.5h-2-2v2.5zm0-2.5v-2h-2.58v2 2h2.58zm-2.58 0h2v-2.5h-2-2v2.5zm0-2.5v-2h-2.59v2 2h2.59zm-2.59 0h2v-5h-2-2v5zm0-5v-2h-2.59v2 2h2.59zm-2.59 0h2v-15h-2-2v15zm0-15v2h2.59v-2-2h-2.59zm2.59 0h2v-5h-2-2v5zm0-5v2h2.59v-2-2h-2.59zm2.59 0h2v-2.5h-2-2v2.5zm0-2.5v2h2.58v-2-2h-2.58zm2.58 0h2v-2.5h-2-2v2.5zm0-2.5v2h5.18v-2-2h-5.18zm5.18 0h2v-2.5h-2-2v2.5zm0-2.5v2h54.12v-2-2h-54.12z"/>
		</clipPath>
	</defs>
	<style>
		.s0 { fill: #001a52 } 
	</style>
	<g clip-path="url(#cp1)">
		<path class="s0" d="m69.06 2h2v-2h-2zm0 2.5h-2v2h2zm5.18 0h2v-2h-2zm0 2.5h-2v2h2zm2.58 0h2v-2h-2zm0 2.5h-2v2h2zm2.59 0h2v-2h-2zm0 5h-2v2h2zm2.59 0h2v-2h-2zm0 15v2h2v-2zm-2.59 0v-2h-2v2zm0 5v2h2v-2zm-2.59 0v-2h-2v2zm0 2.5v2h2v-2zm-2.58 0v-2h-2v2zm0 2.5v2h2v-2zm-5.18 0v-2h-2v2zm0 2.5v2h2v-2zm-54.12 0h-2v2h2zm0-2.5h2v-2h-2zm-5.18 0h-2v2h2zm0-2.5h2v-2h-2zm-2.58 0h-2v2h2zm0-2.5h2v-2h-2zm-2.59 0h-2v2h2zm0-5h2v-2h-2zm-2.59 0h-2v2h2zm0-15v-2h-2v2zm2.59 0v2h2v-2zm0-5v-2h-2v2zm2.59 0v2h2v-2zm0-2.5v-2h-2v2zm2.58 0v2h2v-2zm0-2.5v-2h-2v2zm5.18 0v2h2v-2zm0-2.5v-2h-2v2zm54.12 0h-2v2.5h2 2v-2.5zm0 2.5v2h5.18v-2-2h-5.18zm5.18 0h-2v2.5h2 2v-2.5zm0 2.5v2h2.58v-2-2h-2.58zm2.58 0h-2v2.5h2 2v-2.5zm0 2.5v2h2.59v-2-2h-2.59zm2.59 0h-2v5h2 2v-5zm0 5v2h2.59v-2-2h-2.59zm2.59 0h-2v15h2 2v-15zm0 15v-2h-2.59v2 2h2.59zm-2.59 0h-2v5h2 2v-5zm0 5v-2h-2.59v2 2h2.59zm-2.59 0h-2v2.5h2 2v-2.5zm0 2.5v-2h-2.58v2 2h2.58zm-2.58 0h-2v2.5h2 2v-2.5zm0 2.5v-2h-5.18v2 2h5.18zm-5.18 0h-2v2.5h2 2v-2.5zm0 2.5v-2h-54.12v2 2h54.12zm-54.12 0h2v-2.5h-2-2v2.5zm0-2.5v-2h-5.18v2 2h5.18zm-5.18 0h2v-2.5h-2-2v2.5zm0-2.5v-2h-2.58v2 2h2.58zm-2.58 0h2v-2.5h-2-2v2.5zm0-2.5v-2h-2.59v2 2h2.59zm-2.59 0h2v-5h-2-2v5zm0-5v-2h-2.59v2 2h2.59zm-2.59 0h2v-15h-2-2v15zm0-15v2h2.59v-2-2h-2.59zm2.59 0h2v-5h-2-2v5zm0-5v2h2.59v-2-2h-2.59zm2.59 0h2v-2.5h-2-2v2.5zm0-2.5v2h2.58v-2-2h-2.58zm2.58 0h2v-2.5h-2-2v2.5zm0-2.5v2h5.18v-2-2h-5.18zm5.18 0h2v-2.5h-2-2v2.5zm0-2.5v2h54.12v-2-2h-54.12z"/>
		<rect width="84" height="44" id="Enfärgad fyllning 1" style="fill: #ffffff"/>
	</g>
</svg>