<svg width="218" height="218" viewBox="0 0 218 218" fill="none" xmlns="http://www.w3.org/2000/svg">
<path d="M218 114.178H207.645V124.601H218V114.178Z" fill="white"/>
<path d="M207.645 124.601H197.222V134.956H207.645V124.601Z" fill="white"/>
<path d="M197.222 155.735H186.867V176.513H197.222V155.735Z" fill="white"/>
<path d="M197.222 134.956H186.867V145.379H197.222V134.956Z" fill="white"/>
<path d="M186.867 145.379H176.512V155.734H186.867V145.379Z" fill="white"/>
<path d="M186.867 176.513H155.733V186.868H186.867V176.513Z" fill="white"/>
<path d="M166.088 41.5571H155.733V51.9121H166.088V41.5571Z" fill="white"/>
<path d="M155.734 166.09H145.379V176.513H155.734V166.09Z" fill="white"/>
<path d="M145.379 155.735H134.956V166.09H145.379V155.735Z" fill="white"/>
<path d="M134.956 145.379H124.601V155.734H134.956V145.379Z" fill="white"/>
<path d="M155.734 31.1338H103.822V41.5569H155.734V31.1338Z" fill="white"/>
<path d="M124.6 155.735H103.822V166.09H124.6V155.735Z" fill="white"/>
<path d="M103.822 145.379H93.4673V155.734H103.822V145.379Z" fill="white"/>
<path d="M93.4676 155.735H83.0444V166.09H93.4676V155.735Z" fill="white"/>
<path d="M83.0443 166.09H51.9111V176.513H83.0443V166.09Z" fill="white"/>
<path d="M72.6895 134.956H62.3345V145.379H72.6895V134.956Z" fill="white"/>
<path d="M72.6895 103.823H62.3345V114.178H72.6895V103.823Z" fill="white"/>
<path d="M72.6895 83.0452V72.6903H83.0445V83.0452H93.4676V103.823H83.0445V114.178H72.6895V124.602H83.0445V134.956H176.512V124.602H186.867V114.178H207.645V103.823H197.222V83.0452H186.867V103.823H176.512V114.178H166.089V103.823H155.734V83.0452H166.089V72.6903H176.512V83.0452H186.867V62.3353H176.512V51.9121H166.089V62.3353H155.734V72.6903H114.178V51.9121H103.823V41.5571H83.0445V51.9121H72.6895V62.3353H62.3345V83.0452H72.6895ZM103.823 114.178H114.178V103.823H145.379V114.178H155.734V124.602H103.823V114.178Z" fill="white"/>
<path d="M62.3343 145.379H51.9111V155.734H62.3343V145.379Z" fill="white"/>
<path d="M62.3343 124.601H51.9111V134.956H62.3343V124.601Z" fill="white"/>
<path d="M62.3343 83.0459H51.9111V103.824H62.3343V83.0459Z" fill="white"/>
<path d="M62.3343 51.9121H51.9111V62.3352H62.3343V51.9121Z" fill="white"/>
<path d="M51.9112 155.735H41.5562V166.09H51.9112V155.735Z" fill="white"/>
<path d="M51.9112 114.178H41.5562V124.601H51.9112V114.178Z" fill="white"/>
<path d="M41.5564 103.823H31.1333V114.178H41.5564V103.823Z" fill="white"/>
<path d="M51.911 41.5571H20.7778V51.9121H51.911V41.5571Z" fill="white"/>
<path d="M31.1333 93.4678H10.4233V103.823H31.1333V93.4678Z" fill="white"/>
<path d="M31.1328 72.6909H20.7778V83.0459H31.1328V72.6909Z" fill="white"/>
<path d="M20.7783 51.9121H10.4233V62.3352H20.7783V51.9121Z" fill="white"/>
<path d="M10.4231 62.3354H0V93.4686H10.4231V62.3354Z" fill="white"/>
</svg>
