<svg width="44" height="44" viewBox="0 0 44 44" fill="none" xmlns="http://www.w3.org/2000/svg">
<path d="M28 16H24V20H28V16Z" fill="#001A52"/>
<path d="M20 24H16V28H20V24Z" fill="#001A52"/>
<path d="M16 28H12V32H16V28Z" fill="#001A52"/>
<path d="M32 12H28V16H32V12Z" fill="#001A52"/>
<path d="M20 16H16V20H20V16Z" fill="#001A52"/>
<path d="M24 20H20V24H24V20Z" fill="#001A52"/>
<path d="M24 20H20V24H24V20Z" fill="#001A52"/>
<path d="M28 24H24V28H28V24Z" fill="#001A52"/>
<path d="M32 28H28V32H32V28Z" fill="#001A52"/>
<path d="M16 12H12V16H16V12Z" fill="#001A52"/>
</svg>
